# xmcd
#
# Track frame offsets:
#	150
#	17125
#	32190
#	45117
#	59230
#	71745
#	85427
#	99005
#	113810
#	128280
#
# Disc length: 1907 seconds
#
# Revision: 0
# Processed by: cddbd v1.5PL3 Copyright (c) Steve Scherf et al.
# Submitted via: dBpowerAMP V4.0
#
DISCID=7b07710a
DTITLE=Joan Sebastian - Rumores
DYEAR=1988
DGENRE=Latin
TTITLE0=Rumores(A Duo con Lisa Lopez)
TTITLE1=Mi Ultimo Amor
TTITLE2=El Ilegal
TTITLE3=Confundido
TTITLE4=Hoy Empieza mi Tristeza
TTITLE5=Veinticinco Rosas
TTITLE6=No Le Tengas Compasion
TTITLE7=Los Amantes Mas Locos
TTITLE8=Triangulo Del Sol(Acapulquena, Taxco De Mis Amores)
TTITLE9=Duele El Amor
EXTD=Norteno star Joan Sebastian
EXTT0=
EXTT1=
EXTT2=
EXTT3=
EXTT4=
EXTT5=
EXTT6=
EXTT7=
EXTT8=
EXTT9=
PLAYORDER=
